<?xml version="1.0" encoding="UTF-8"?>
<svg width="30px" height="28px" viewBox="0 0 30 28" version="1.1" xmlns="http://www.w3.org/2000/svg" xmlns:xlink="http://www.w3.org/1999/xlink">
    <!-- Generator: Sketch 58 (84663) - https://sketch.com -->
    <title>甄云LOGO_RGB-05</title>
    <desc>Created with Sketch.</desc>
    <g id="页面-1" stroke="none" stroke-width="1" fill="none" fill-rule="evenodd">
        <g id="甄云官网_招投标" transform="translate(-120.000000, -107.000000)" fill-rule="nonzero">
            <g id="编组-69备份" transform="translate(0.000000, 85.000000)">
                <g id="编组-68">
                    <g id="甄云LOGO_RGB-05" transform="translate(120.000000, 22.000000)">
                        <g id="Group-2">
                            <g id="Group" transform="translate(0.000000, -0.000000)">
                                <path d="M19.4544754,10.9686605 L23.2551511,8.74631812 C23.4169782,8.6529468 23.6156414,8.65366931 23.7768014,8.7482153 C23.9379614,8.84276128 24.0373273,9.01688022 24.0377165,9.20541722 L24.0377165,18.5387505 C24.0379756,18.7274947 23.9385264,18.9019795 23.7769667,18.9962392 C23.6154071,19.0904989 23.4163882,19.090151 23.2551511,18.9953271 L14.6020718,13.9326244 C14.5363931,13.8948358 14.4559095,13.8948358 14.3902309,13.9326244 L9.54779623,16.7628947 L28.2122291,27.6753271 C28.3734661,27.770151 28.572485,27.7704989 28.7340447,27.6762392 C28.8956044,27.5819795 28.9950535,27.4074947 28.9947949,27.2187505 L28.9947949,0.527939761 C28.9950535,0.339195567 28.8956044,0.164710772 28.7340447,0.070451087 C28.572485,-0.0238085983 28.3734661,-0.0234607268 28.2122291,0.0713631853 L19.7136691,5.05334516 C19.556816,5.15036421 19.4621013,5.32388052 19.4644444,5.50992173 L19.4544754,10.9686605 Z" id="Path" fill="#26CCDD"></path>
                                <path d="M9.54779623,16.7780298 L5.73964383,19.0003722 C5.57840677,19.0951961 5.37938787,19.0955439 5.21782819,19.0012843 C5.05626852,18.9070246 4.95681936,18.7325398 4.95707848,18.5437956 L4.95707848,9.21046227 C4.95681936,9.02171807 5.05626852,8.84723328 5.21782819,8.75297359 C5.37938787,8.65871391 5.57840677,8.65906178 5.73964383,8.75388569 L14.3927231,13.8165884 C14.4584018,13.854377 14.5388854,13.854377 14.6045641,13.8165884 L19.4469987,10.9888406 L0.782565856,0.0764082303 C0.621328799,-0.0184156818 0.422309896,-0.0187635533 0.26075022,0.075496132 C0.0991905442,0.169755817 -0.00025860726,0.344240612 4.4408921e-13,0.532984806 L4.4408921e-13,27.2187505 C-0.00025860726,27.4074947 0.0991905442,27.5819795 0.26075022,27.6762392 C0.422309896,27.7704989 0.621328799,27.770151 0.782565856,27.6753271 L9.2985716,22.7110028 C9.45432021,22.6129181 9.54866023,22.4400883 9.54779623,22.2544262 L9.54779623,16.7780298 Z" id="Path" fill="#FDA80A"></path>
                            </g>
                        </g>
                    </g>
                </g>
            </g>
        </g>
    </g>
</svg>