<?xml version="1.0" encoding="UTF-8"?>
<svg width="150px" height="28px" viewBox="0 0 150 28" version="1.1" xmlns="http://www.w3.org/2000/svg" xmlns:xlink="http://www.w3.org/1999/xlink">
    <!-- Generator: Sketch 58 (84663) - https://sketch.com -->
    <title>甄云LOGO_RGB-05</title>
    <desc>Created with Sketch.</desc>
    <g id="页面-1" stroke="none" stroke-width="1" fill="none" fill-rule="evenodd">
        <g id="甄云官网_招投标" transform="translate(-120.000000, -107.000000)" fill-rule="nonzero">
            <g id="编组-69备份" transform="translate(0.000000, 85.000000)">
                <g id="编组-68">
                    <g id="甄云LOGO_RGB-05" transform="translate(120.000000, 22.000000)">
                        <g id="Group-2">
                            <path d="M93.9601798,10.8501019 L94.8573885,13.5340659 L78.675233,13.5340659 L75.7169366,23.0641559 L89.4965666,23.0641559 L86.4784563,16.0565884 L89.6361324,16.0565884 L93.476684,26.0331649 L71.5997456,26.0331649 L75.7119521,13.5340659 L69.9498785,13.5340659 L70.8321337,10.8501019 L93.9601798,10.8501019 Z M91.9838284,1.71352534 L92.8461457,4.40001183 L71.5598697,4.40001183 L72.4221869,1.71352534 L91.9838284,1.71352534 Z" id="Combined-Shape" fill="#414447"></path>
                            <path d="M108.507422,1.26199381 L109.509305,3.7365884 L104.716715,4.15532714 L104.716715,8.84217398 L108.691848,8.84217398 L109.554165,11.2133451 L104.716715,11.2133451 L104.716715,26.487219 L102.149701,26.487219 L102.149701,11.2133451 L97.1552396,11.2133451 L98.0574328,8.84217398 L102.149701,8.84217398 L102.149701,4.37730912 L98.0050956,4.73802984 L97.3521271,2.26091273 L108.507422,1.26199381 Z M119.685147,1.46884066 L119.685147,16.5257776 L122.852792,15.9455974 L122.57366,18.4075794 L119.685147,18.9625343 L119.685147,26.3989307 L116.941183,26.3989307 L116.941183,19.2324442 L109.661332,20.4886604 L109.392169,18.0720839 L116.941183,16.7956875 L116.941183,1.46884066 L119.685147,1.46884066 Z M101.167756,12.3787506 L100.058707,25.3773091 L97.6761191,25.3773091 L98.8574438,12.3787506 L101.167756,12.3787506 Z M107.979065,12.376228 L109.217712,25.3697415 L106.835124,25.3773091 L105.668753,12.3863181 L107.979065,12.376228 Z M115.634496,11.7793529 L115.642723,11.7834352 L115.642723,14.6515433 C114.175573,13.0293451 110.215445,12.7378116 109.990349,12.7224767 L109.980339,12.7218136 L109.980339,10.3733451 C112.542066,10.2730558 115.460004,11.6931919 115.634496,11.7793529 Z M115.634496,5.75556911 L115.642723,5.75965146 L115.642723,8.62775957 C114.175573,7.00556137 110.215445,6.71402778 109.990349,6.69869296 L109.980339,6.69802984 L109.980339,4.34956138 C112.542066,4.249272 115.460004,5.66940816 115.634496,5.75556911 Z" id="Combined-Shape" fill="#414447"></path>
                            <g id="Group" transform="translate(0.000000, -0.000000)">
                                <path d="M19.4544754,10.9686605 L23.2551511,8.74631812 C23.4169782,8.6529468 23.6156414,8.65366931 23.7768014,8.7482153 C23.9379614,8.84276128 24.0373273,9.01688022 24.0377165,9.20541722 L24.0377165,18.5387505 C24.0379756,18.7274947 23.9385264,18.9019795 23.7769667,18.9962392 C23.6154071,19.0904989 23.4163882,19.090151 23.2551511,18.9953271 L14.6020718,13.9326244 C14.5363931,13.8948358 14.4559095,13.8948358 14.3902309,13.9326244 L9.54779623,16.7628947 L28.2122291,27.6753271 C28.3734661,27.770151 28.572485,27.7704989 28.7340447,27.6762392 C28.8956044,27.5819795 28.9950535,27.4074947 28.9947949,27.2187505 L28.9947949,0.527939761 C28.9950535,0.339195567 28.8956044,0.164710772 28.7340447,0.070451087 C28.572485,-0.0238085983 28.3734661,-0.0234607268 28.2122291,0.0713631853 L19.7136691,5.05334516 C19.556816,5.15036421 19.4621013,5.32388052 19.4644444,5.50992173 L19.4544754,10.9686605 Z" id="Path" fill="#26CCDD"></path>
                                <path d="M9.54779623,16.7780298 L5.73964383,19.0003722 C5.57840677,19.0951961 5.37938787,19.0955439 5.21782819,19.0012843 C5.05626852,18.9070246 4.95681936,18.7325398 4.95707848,18.5437956 L4.95707848,9.21046227 C4.95681936,9.02171807 5.05626852,8.84723328 5.21782819,8.75297359 C5.37938787,8.65871391 5.57840677,8.65906178 5.73964383,8.75388569 L14.3927231,13.8165884 C14.4584018,13.854377 14.5388854,13.854377 14.6045641,13.8165884 L19.4469987,10.9888406 L0.782565856,0.0764082303 C0.621328799,-0.0184156818 0.422309896,-0.0187635533 0.26075022,0.075496132 C0.0991905442,0.169755817 -0.00025860726,0.344240612 4.4408921e-13,0.532984806 L4.4408921e-13,27.2187505 C-0.00025860726,27.4074947 0.0991905442,27.5819795 0.26075022,27.6762392 C0.422309896,27.7704989 0.621328799,27.770151 0.782565856,27.6753271 L9.2985716,22.7110028 C9.45432021,22.6129181 9.54866023,22.4400883 9.54779623,22.2544262 L9.54779623,16.7780298 Z" id="Path" fill="#FDA80A"></path>
                            </g>
                            <path d="M66.1766176,1.45875057 L67.0214891,3.98127309 L59.2955254,3.98127309 L59.1758976,7.2983902 L66.1791098,7.2983902 C66.1791098,7.2983902 66.1766176,16.8183902 66.1840943,16.8915433 C66.1840943,22.247449 66.9245521,25.8126264 67.0190786,26.2459341 L67.0289658,26.2904622 L64.4968435,26.2904622 C63.8787665,22.4007325 63.8314138,14.0335253 63.8513517,9.82343524 L63.8513517,9.82343524 L59.0961457,9.82343524 L58.5976965,23.6973091 L60.788381,23.6973091 L61.7304501,26.1643361 L56.1054501,26.1643361 L56.853124,3.98127309 L56.1054501,3.98127309 L56.1054501,1.45875057 L66.1766176,1.45875057 Z M55.1384585,1.451183 L55.1384585,3.97370552 L51.3327984,3.97370552 L51.3327984,6.31460642 L55.1309818,6.31460642 L55.1309818,14.0410929 C55.1116335,14.915282 54.4328834,15.6178729 53.5862983,15.6726397 L53.443731,15.6756875 L49.9994466,15.6756875 L49.9994466,18.0140659 L54.4082304,18.0140659 L54.4082304,20.4659577 L49.9994466,20.4659577 L49.9994466,23.7200118 L55.1384585,23.687219 L55.1384585,26.1719037 L41.6578981,26.1719037 L42.5127386,23.7200118 L47.302836,23.7200118 L47.302836,20.4407325 L42.2809597,20.4407325 L43.1657071,17.9888406 L47.302836,17.9888406 L47.302836,15.6479397 L42.031735,15.6479397 L42.031735,6.31460642 L45.795027,6.31460642 L45.795027,3.98127309 L41.6080532,3.98127309 L42.0566575,1.451183 L55.1384585,1.451183 Z M60.1752884,13.0875794 L62.1466552,13.0875794 C62.1466552,17.8403638 62.8314259,20.9374348 62.8632757,21.0789142 L62.8644222,21.0839758 L60.7086291,21.0839758 C60.3336027,18.7346296 60.1508593,16.3584669 60.1620135,13.9796942 L60.1752884,13.0875794 L62.1466552,13.0875794 Z M45.795027,8.22667849 L44.1426677,8.22667849 L44.1426677,13.8998316 L45.795027,13.8998316 L45.795027,8.22667849 Z M53.0225414,8.22667849 L51.3327984,8.22667849 L51.3327984,13.8998316 L53.0225414,13.8998316 L53.0225414,8.22667849 Z M49.6106562,8.22667849 L47.5196615,8.22667849 L47.5196615,13.8998316 L49.6106562,13.8998316 L49.6106562,8.22667849 Z M49.6106562,3.98127309 L47.5196615,3.98127309 L47.5196615,6.31460642 L49.6106562,6.31460642 L49.6106562,3.98127309 Z" id="Combined-Shape" fill="#414447"></path>
                            <path d="M130.708352,1.30739922 L130.708352,6.54667849 L133.093432,6.54667849 L132.943897,8.91784966 L130.700875,8.91784966 L130.700875,14.5128046 L133.093432,13.8771289 L132.91399,16.3870388 L130.695891,16.9344262 L130.695891,26.3737055 L126.209847,26.4392911 L125.242856,24.2245163 L128.203644,23.9243361 L128.203644,17.2875794 L124.963724,18.0115433 L125.023538,15.5369487 L128.196168,14.8609127 L128.196168,8.91784966 L124.943786,8.91784966 L125.300178,6.54667849 L128.196168,6.54667849 L128.196168,1.30739922 L130.708352,1.30739922 Z M142.68858,1.30739922 L142.68858,4.41766948 L148.527913,4.41766948 L148.527913,6.78884065 L142.68858,6.78884065 L142.68858,10.4540659 L147.319174,10.4540659 C147.795193,10.4540659 149.011409,10.9434352 148.044418,12.9034352 C146.788046,15.5226992 145.195898,17.9628334 143.30915,20.1607325 C145.307496,22.3801825 147.456018,24.4561881 149.739145,26.3737055 L149.739145,26.3737055 L145.624446,26.3737055 C144.186375,25.0395538 142.823462,23.6247137 141.542147,22.1358677 C140.106048,23.6633508 138.559028,25.0799188 136.914045,26.3737055 L136.914045,26.3737055 L132.799347,26.3737055 C135.402002,24.6218614 137.765079,22.5303224 139.827481,20.153165 C137.093487,16.9243361 134.252326,13.882174 134.252326,13.882174 L134.252326,13.882174 L137.639289,13.882174 C138.775753,15.4284803 140.415652,16.8486605 141.517224,18.1376695 C142.845571,16.4815985 144.056503,14.7324877 145.140951,12.9034352 L145.140951,12.9034352 L134.252326,12.9034352 L134.252326,10.4540659 L139.952094,10.4540659 L139.952094,6.78884065 L134.252326,6.78884065 L134.252326,4.41766948 L139.947109,4.41766948 L139.947109,1.30739922 L142.68858,1.30739922 Z" id="Combined-Shape" fill="#414447"></path>
                        </g>
                    </g>
                </g>
            </g>
        </g>
    </g>
</svg>